<svg width="251" height="15" viewBox="0 0 251 15" fill="none" xmlns="http://www.w3.org/2000/svg">
<path d="M13.6 15H10.54L4.3 8.7H10.9V2.4H3.1V15H0.7V4.47L2.8 2.4H0.7V0.3H11.2C11.76 0.3 12.25 0.51 12.67 0.93C13.09 1.35 13.3 1.84 13.3 2.4V8.1C13.3 9.7 12.6 10.5 11.2 10.5H9.4V10.83L13.6 15ZM28.4559 15H17.9559V4.5L20.0559 2.4H17.9559V0.3H28.4559V2.4H20.3559V8.4L22.1559 6.6H28.4559V8.7H20.3559V12.9H28.4559V15ZM42.8559 12.9C42.8559 13.48 42.6459 13.98 42.2259 14.4C41.8259 14.8 41.3359 15 40.7559 15H32.3559V12.9H40.4559V8.7H34.4559C33.8759 8.7 33.3759 8.5 32.9559 8.1C32.5559 7.68 32.3559 7.18 32.3559 6.6V2.4C32.3559 1.82 32.5559 1.33 32.9559 0.93C33.3759 0.51 33.8759 0.3 34.4559 0.3H42.8559V2.4H34.7559V6.6H40.7559C41.3359 6.6 41.8259 6.81 42.2259 7.23C42.6459 7.63 42.8559 8.12 42.8559 8.7V12.9ZM60.2629 15H57.8629V13.2L56.0629 15H49.7629C49.1829 15 48.6829 14.8 48.2629 14.4C47.8629 13.98 47.6629 13.48 47.6629 12.9V0.3H50.0629V12.9H57.8629V0.3H60.2629V15ZM80.3512 14.97H77.9512V3.93L78.8512 2.43H77.5012L73.8112 10.8H72.0712L68.5012 2.43H67.1512L68.0512 3.93V14.97H65.6512V0.3H69.9412L72.9112 7.32H73.2112L76.1812 0.3H80.3512V14.97ZM96.2488 15H85.7488V4.5L87.8488 2.4H85.7488V0.3H96.2488V2.4H88.1488V8.4L89.9488 6.6H96.2488V8.7H88.1488V12.9H96.2488V15ZM103.149 15H100.449V12.6H103.149V15ZM118.149 12.9C118.149 13.48 117.939 13.98 117.519 14.4C117.119 14.8 116.629 15 116.049 15H107.649V12.9H115.749V8.7H109.749C109.169 8.7 108.669 8.5 108.249 8.1C107.849 7.68 107.649 7.18 107.649 6.6V2.4C107.649 1.82 107.849 1.33 108.249 0.93C108.669 0.51 109.169 0.3 109.749 0.3H118.149V2.4H110.049V6.6H116.049C116.629 6.6 117.119 6.81 117.519 7.23C117.939 7.63 118.149 8.12 118.149 8.7V12.9ZM133.456 15H122.956V4.5L125.056 2.4H122.956V0.3H133.456V2.4H125.356V8.4L127.156 6.6H133.456V8.7H125.356V12.9H133.456V15ZM151.156 0.3L145.546 15H141.646L136.156 0.3H138.856L143.356 12.96H143.956L148.456 0.3H151.156ZM167.193 12.9C167.193 13.48 166.983 13.98 166.563 14.4C166.163 14.8 165.673 15 165.093 15H156.693C156.113 15 155.613 14.8 155.193 14.4C154.793 13.98 154.593 13.48 154.593 12.9V2.4C154.593 1.82 154.793 1.33 155.193 0.93C155.613 0.51 156.113 0.3 156.693 0.3H165.093C165.673 0.3 166.163 0.51 166.563 0.93C166.983 1.33 167.193 1.82 167.193 2.4V4.5H164.793V2.4H156.993V12.9H164.793V10.8H167.193V12.9ZM174.106 15H171.706V0.3H174.106V15ZM192.849 0.3L186.189 6.51V6.81H189.999C190.579 6.81 191.069 7.02 191.469 7.44C191.889 7.84 192.099 8.33 192.099 8.91V15H189.699V8.7H181.899V15H179.499V0.3H181.899V8.31L189.879 0.3H192.849ZM199.301 15H196.601V12.6H199.301V15ZM217.001 12.9C217.001 13.46 216.791 13.95 216.371 14.37C215.951 14.79 215.461 15 214.901 15H204.401V4.5L206.501 2.4H204.401V0.3H214.901C215.461 0.3 215.951 0.51 216.371 0.93C216.791 1.35 217.001 1.84 217.001 2.4V12.9ZM214.601 12.9V2.4H206.801V14.7L208.601 12.9H214.601ZM232.743 15H222.243V4.5L224.343 2.4H222.243V0.3H232.743V2.4H224.643V8.4L226.443 6.6H232.743V8.7H224.643V12.9H232.743V15ZM250.443 0.3L244.833 15H240.933L235.443 0.3H238.143L242.643 12.96H243.243L247.743 0.3H250.443Z" fill="url(#paint0_linear_124:2)"/>
<defs>
<linearGradient id="paint0_linear_124:2" x1="0.500001" y1="7.99999" x2="252" y2="8" gradientUnits="userSpaceOnUse">
<stop stop-color="#F155FF" stop-opacity="0.8"/>
<stop offset="1" stop-color="#73FFFF" stop-opacity="0.8"/>
</linearGradient>
</defs>
</svg>
